<?xml version="1.0" encoding="UTF-8"?>
<svg id="Layer_1" data-name="Layer 1" xmlns="http://www.w3.org/2000/svg" viewBox="0 0 71.11112 71.10157">
  <defs>
    <style>
      .cls-1 {
        fill: #569d5f;
      }

      .cls-2 {
        fill: #e39d5f;
      }
    </style>
  </defs>
  <path class="cls-2" d="M35.57058,.00068C15.99056-.11932,.11056,15.75068,.00057,35.54065c-.10999,19.58002,15.71997,35.42004,35.54999,35.56,19.56,.14001,35.45001-15.75,35.56-35.53998C71.22054,15.97071,55.37056,.12067,35.57058,.00068Zm17.27997,28.73999c-2.54999,2.62-5.13,5.21002-7.69995,7.81-3.80005,3.85004-7.61005,7.69-11.40002,11.54004-1.13,1.13995-2.47003,1.71997-4.03003,1.32001-.78998-.20001-1.62-.62006-2.20996-1.18005-3.10999-2.98999-6.15002-6.03998-9.20001-9.08997-1.72998-1.72998-1.76001-4.35004-.09998-6.03003,1.64996-1.69,4.32996-1.67999,6.08997,.04004,1.89001,1.83997,3.75,3.69,5.60999,5.54999,.19,.19,.31,.45001,.46002,.66998,.10999,.01001,.21997,.01001,.32001,.02002,.16998-.25,.28998-.53003,.5-.72998,5.16998-5.24005,10.34998-10.46002,15.52997-15.68005,1.68005-1.69995,4.07001-1.88,5.81-.47998,1.99005,1.59003,2.15002,4.35999,.32001,6.23999Z"/>
  <path class="cls-1" d="M35.57058,.00068C15.99056-.11932,.11056,15.75068,.00057,35.54065c-.10999,19.58002,15.71997,35.42004,35.54999,35.56,19.56,.14001,35.45001-15.75,35.56-35.53998C71.22054,15.97071,55.37056,.12067,35.57058,.00068Zm17.27997,28.73999c-2.54999,2.62-5.13,5.21002-7.69995,7.81-3.80005,3.85004-7.61005,7.69-11.40002,11.54004-1.13,1.13995-2.47003,1.71997-4.03003,1.32001-.78998-.20001-1.62-.62006-2.20996-1.18005-3.10999-2.98999-6.15002-6.03998-9.20001-9.08997-1.72998-1.72998-1.76001-4.35004-.09998-6.03003,1.64996-1.69,4.32996-1.67999,6.08997,.04004,1.89001,1.83997,3.75,3.69,5.60999,5.54999,.19,.19,.31,.45001,.46002,.66998,.10999,.01001,.21997,.01001,.32001,.02002,.16998-.25,.28998-.53003,.5-.72998,5.16998-5.24005,10.34998-10.46002,15.52997-15.68005,1.68005-1.69995,4.07001-1.88,5.81-.47998,1.99005,1.59003,2.15002,4.35999,.32001,6.23999Z"/>
</svg>