<?xml version="1.0" encoding="UTF-8"?>
<svg id="Layer_1" data-name="Layer 1" xmlns="http://www.w3.org/2000/svg" viewBox="0 0 352.15386 352.1078">
  <defs>
    <style>
      .cls-1 {
        fill: #022b51;
      }
    </style>
  </defs>
  <path class="cls-1" d="M176.11427,352.10581C79.99406,352.56571,.30794,273.45165,.00093,177.25677-.31142,79.38881,77.96944,.54858,175.99739,.00269c96.20802-.53575,175.90274,78.94148,176.15586,175.67515,.25437,97.21656-78.31586,175.96042-176.03897,176.42797Zm.05968-320.04027c-79.43314,.00995-144.08819,64.43892-144.11971,143.61576-.03173,79.71664,64.36625,144.43634,143.69972,144.41764,79.73529-.01879,144.3042-64.53186,144.34263-144.21782,.03818-79.18625-64.64919-143.82552-143.92264-143.81558Zm-16.03712,96.03172c0,15.36773,.11402,30.73673-.05773,46.10255-.06599,5.90369,1.92583,10.57285,6.10352,14.6889,12.37074,12.18819,24.59002,24.53002,36.87338,36.80693,3.35785,3.35607,6.58642,6.85953,10.12827,10.0099,9.25431,8.23139,23.45923,3.71965,26.26094-8.3159,1.42765-6.13277-.64118-11.26282-5.02678-15.63417-13.18498-13.14212-26.28759-26.36738-39.54351-39.43732-2.14401-2.11394-2.93293-4.23612-2.92144-7.21208,.10626-27.48596,.07763-54.97254,.03596-82.45885-.00357-2.35336-.03562-4.80163-.65104-7.04191-2.12718-7.74315-9.34755-12.28302-17.55818-11.32164-7.43133,.87014-13.47054,7.29085-13.55245,15.08887-.17057,16.23996-.05159,32.48296-.05159,48.7247h-.03936Z"/>
</svg>