<svg viewBox="0 0 996.12 992.64" xmlns="http://www.w3.org/2000/svg" xmlns:xlink="http://www.w3.org/1999/xlink"><style>:root>svg{display:none}:root>svg:target{display:block}</style><svg data-name="Layer 1" viewBox="0 0 996.121 992.639" id="max"><path d="M285.794 918.775c-11.064 14.29-24.837 25.252-39.824 34.736-30.578 19.35-63.25 33.409-99.42 38.105-13.62 1.768-27.207 1.383-40.643-2.258-20.061-5.437-30.84-18.702-33.447-38.92-.893-6.925-1.501-13.938-1.53-20.914-.147-35.876-6.148-71.007-14.232-105.736-11.051-47.476-23.242-94.686-34.767-142.054-14.946-61.428-24.084-123.546-21.493-187 4.63-113.41 37.64-216.98 107.884-307.223 58.48-75.129 133.527-127.43 223.432-158.321C400.337 5.625 471.014-3.845 543.313 1.41c101.714 7.395 192.352 43.56 270.651 108.97 90.971 75.997 147.72 172.917 172.081 288.718 10.71 50.905 12.775 102.38 6.708 154.113-22.684 193.432-148.571 340.315-316.584 405.968-56.936 22.248-115.985 33.622-177.177 32.63-38.292-.621-76.062-5.434-112.552-17.706-26.87-9.036-51.14-23.257-74.848-38.5-8.53-5.484-16.99-11.078-25.798-16.828zm79.481-214.812c2.822 1.822 5.042 3.29 7.294 4.706 52.85 33.24 110.012 45.62 171.612 34.227 47.657-8.814 89.457-30.18 125.082-62.937 52.602-48.368 82.05-107.94 83.965-179.964.957-35.999-6.976-70.402-21.452-103.33-48.251-109.754-160.12-166.014-274.373-150.166-50.842 7.053-93.465 31.012-128.854 67.799-49.569 51.526-73.665 114.256-80.143 184.579a607.072 607.072 0 00-1.119 97.861c2.357 33.99 6.923 67.64 17.395 100.128 4.516 14.01 10.433 27.73 17.212 40.803 5.822 11.229 14.99 13.646 26.813 8.968a73.256 73.256 0 0014.894-8.004c6.674-4.666 12.963-9.91 19.213-15.15 7.521-6.306 14.829-12.867 22.461-19.52z"/></svg><svg data-name="Layer 1" viewBox="0 0 409.6 408.839" id="phone"><path d="M0 216.392v-23.956c.23-1.143.59-2.276.668-3.43 1.373-20.043 5.934-39.364 13.017-58.139C41.97 55.886 116.082 2.757 196.188.13c43.599-1.43 84.094 9.033 120.477 33.174 49.178 32.632 79.163 78.238 89.792 136.32 1.38 7.544 2.111 15.206 3.143 22.813v23.956c-.64 5.252-1.17 10.52-1.936 15.754-7.072 48.314-28.267 89.342-64.177 122.544-29.475 27.252-64.163 44.264-103.8 51.029-7.585 1.294-15.256 2.093-22.887 3.12h-24c-1.297-.237-2.586-.53-3.891-.703-7.516-1.002-15.11-1.589-22.542-3.02-44.754-8.625-82.575-29.833-113.23-63.444-26.654-29.225-43.372-63.455-50.017-102.47-1.288-7.561-2.093-15.204-3.12-22.81zm96.998-69.345c-.34 14.832 3.773 25.225 8.178 35.5 11.208 26.145 27.596 48.786 47.605 68.842 26.324 26.388 56.33 46.996 92.596 57.478 13.624 3.937 26.815 2.742 39.632-3.35 9.508-4.521 16.397-12.164 23.66-19.368 5.35-5.305 5.339-9.722-.016-15.101a9666.815 9666.815 0 00-35.595-35.586c-5.27-5.24-9.834-5.168-15.156.169-6.394 6.41-12.7 12.909-19.102 19.312-7.943 7.945-17.209 8.671-26.27 2.191-22.93-16.394-42.85-35.846-59.69-58.437-7.024-9.423-6.425-18.426 1.881-26.8 6.752-6.807 13.615-13.504 20.33-20.346 4.632-4.719 4.685-9.294.043-13.978a4685.274 4685.274 0 00-36.753-36.687c-4.509-4.45-9.13-4.43-13.709-.02-4.6 4.43-9.09 8.988-13.43 13.673-9.357 10.095-13.808 22.2-14.204 32.508z"/></svg><svg data-name="Layer 1" viewBox="0 0 384 384" id="tg"><path d="M204 384h-24c-4.687-.576-9.385-1.073-14.058-1.74-37.947-5.425-71.57-20.491-100.33-45.862-33.655-29.69-54.675-66.687-62.63-110.941C1.705 218.355.98 211.155 0 204v-24c.552-4.566 1.026-9.143 1.667-13.697 5.494-39.045 21.197-73.45 47.668-102.669 29.66-32.738 66.317-53.175 109.96-60.738C166.156 1.706 173.095.954 180 0h24c.962.21 1.915.54 2.887.613 28.978 2.166 56.201 10.294 81.125 25.189 50.859 30.393 82.092 74.743 93.044 133.112 1.307 6.967 1.978 14.054 2.944 21.086v24c-.212.966-.543 1.923-.618 2.899-2.528 32.92-12.693 63.317-31.125 90.673-30.591 45.404-72.891 73.384-126.819 83.451-7.084 1.322-14.289 2-21.438 2.977zm77.08-252.81c.285-12.572-4.836-17.228-14.488-15.002-6.895 1.59-13.772 3.68-20.29 6.42-54.5 22.915-108.923 46.016-163.337 69.136-2.608 1.108-5.126 2.657-7.325 4.443-4.48 3.638-4.03 7.853.989 10.819 1.597.944 3.334 1.744 5.105 2.289 10.368 3.188 20.759 6.303 31.155 9.4 10.823 3.223 20.719 1.092 29.858-5.281 1.229-.857 2.493-1.663 3.74-2.494 23.48-15.652 46.956-31.311 70.45-46.944 2.387-1.59 4.75-3.351 7.377-4.391 1.416-.56 3.37.244 5.082.433-.284 1.591-.077 3.559-.95 4.7-2.19 2.862-4.753 5.472-7.37 7.968-14.104 13.454-28.309 26.802-42.392 40.277-4.507 4.312-9.017 8.676-13.036 13.43-3.99 4.718-3.605 8.907.767 13.304 2.269 2.281 4.906 4.251 7.575 6.07 17.437 11.883 34.871 23.774 52.448 35.449 3.904 2.594 8.188 4.92 12.626 6.341 8.019 2.568 13.366-.004 16.67-7.749 1.745-4.087 2.972-8.5 3.728-12.886 5.53-32.101 11.015-64.211 16.23-96.365 2.257-13.918 3.843-27.945 5.389-39.367z"/></svg><svg data-name="Layer 1" viewBox="0 0 384 384" id="wp"><path d="M180 0h24c.962.21 1.916.537 2.888.61 32.39 2.47 62.35 12.37 89.378 30.337 46.29 30.772 74.8 73.526 84.837 128.344 1.254 6.85 1.945 13.803 2.897 20.709v24c-.952 6.904-1.71 13.842-2.886 20.707-13.606 79.436-76.37 142.47-155.678 156.327-7.101 1.241-14.289 1.99-21.436 2.966h-23.25c-1.22-.214-2.431-.533-3.66-.628-31.466-2.422-60.526-12.118-87.184-28.961-2.43-1.536-4.44-1.93-7.232-1.018-22.047 7.192-44.149 14.216-66.238 21.277-1.087.347-2.218.554-3.716.921 7.639-22.78 15.043-45.017 22.601-67.2.94-2.759.728-4.735-.985-7.176-16.15-23.027-26.683-48.422-31.386-76.169C1.726 217.822.97 210.518 0 203.25V180c.575-4.69 1.065-9.394 1.74-14.07 6.053-41.992 23.778-78.302 53.567-108.512 28.71-29.115 63.264-47.412 103.622-54.47C165.91 1.727 172.974.971 180 0zm76.42 299.486c1.703-.205 5.09-.384 8.37-1.07 3.526-.74 7.093-1.622 10.4-3.017 24.304-10.255 31.77-22.246 32.556-46.339.119-3.656-1.274-6.167-4.629-7.767-14.526-6.93-28.954-14.07-43.547-20.855-7.074-3.288-11.274-1.885-15.889 4.362-3.859 5.224-7.559 10.573-11.588 15.661-5.73 7.237-9.805 8.142-18.292 4.701-31.51-12.772-55.125-34.602-72.756-63.319-4.092-6.665-3.999-8.668 1.086-14.636 3.888-4.563 7.978-8.956 11.786-13.583 3.646-4.43 4.172-9.144 1.743-14.634-5.4-12.205-10.335-24.617-15.445-36.95-5.889-14.211-5.895-14.412-22.722-14.116-6.21.11-12.411 1.655-16.763 6.371-4.708 5.103-9.542 10.417-12.813 16.455-10.054 18.559-9.34 37.837-2.12 57.223 5.696 15.296 15 28.444 24.611 41.388 28.122 37.871 62.448 67.578 108.307 82.101 11.79 3.734 23.476 7.787 37.705 8.024z"/></svg></svg>