<?xml version="1.0" encoding="UTF-8"?>
<svg id="Layer_1" data-name="Layer 1" xmlns="http://www.w3.org/2000/svg" viewBox="0 0 260.2434 278.87265">
  <defs>
    <style>
      .cls-1 {
        fill: #1b354c;
      }
    </style>
  </defs>
  <path class="cls-1" d="M142.63996,23.12792c2.9447-1.73005,5.73828-3.82147,8.86045-5.12716,13.02303-5.44625,25.8146-11.79195,39.3-15.71393,27.18494-7.90622,52.51634,5.19778,63.42987,31.43316,9.05533,21.7684,7.34768,43.47334-1.54305,64.64854-4.62291,11.0104-10.45,21.58762-16.5097,31.9044-7.93867,13.5158-10.26623,27.52277-8.52033,43.13059,3.06601,27.40909,1.56793,54.60085-9.31004,80.52414-1.47511,3.51534-3.30836,6.92574-5.34224,10.15385-12.62107,20.03183-39.58738,19.70792-51.24448-.91853-3.97617-7.03559-6.15543-15.06733-9.4414-22.51792-3.07711-6.97705-5.77731-14.29448-9.98627-20.56004-7.55011-11.2393-17.86144-10.98311-25.11369,.5133-3.86265,6.12314-6.36249,13.13201-9.24122,19.84244-2.88445,6.72375-5.0354,13.79297-8.29238,20.31922-5.53363,11.08812-14.54423,17.91609-27.25506,18.04645-12.34233,.12654-20.97953-6.47487-26.87006-16.98576-10.23128-18.25643-13.25434-38.3105-13.87179-58.75643-.34577-11.45,.20112-22.9976,1.3383-34.40227,1.18526-11.88693-.6674-22.8825-6.32773-33.29416-5.16845-9.50691-10.73725-18.81038-15.56606-28.4848C1.0953,86.77256-3.08905,65.74218,2.49315,43.43533,8.61451,18.97397,27.18737,1.82181,50.78127,.1953c7.28649-.50232,15.26652,.38608,22.04412,2.96408,14.41142,5.48168,28.24555,12.48245,42.30111,18.89388,.6677,.30458,1.18885,.93044,2.49291,1.98414-11.03074,1.11913-20.98027,.02795-30.87035-2.18357-5.68741-1.27176-11.36653-2.62088-17.10433-3.61944-16.57453-2.8845-29.48881,3.3707-38.90037,16.77043-11.26957,16.04507-12.87657,34.29432-8.78355,52.68965,3.05427,13.72687,8.27031,26.99501,12.86598,40.34964,3.73303,10.84789,8.81795,21.33217,8.26907,33.19804-.23055,4.98413-.83101,9.95421-1.35218,14.92135-2.42893,23.14975-.85821,45.97303,6.57331,68.09819,2.02807,6.03799,5.14042,12.06429,9.09325,17.03104,8.65638,10.87687,22.39106,10.4408,30.56605-.78509,3.47258-4.76854,5.88115-10.39978,8.2407-15.86871,2.96396-6.86982,5.07347-14.11426,8.14608-20.92905,1.95977-4.34662,4.56445-8.57075,7.63006-12.21962,10.01858-11.92463,25.44612-12.29506,35.48349-.36018,4.51205,5.36502,7.69711,12.00749,10.69883,18.437,3.1593,6.76702,5.24168,14.02873,8.07313,20.96053,1.31076,3.20892,2.98541,6.36142,5.00594,9.17225,8.93333,12.42749,23.95916,12.91706,32.48938,.19065,4.80621-7.17047,8.28627-15.64366,10.55363-24.01998,5.53625-20.45272,6.79415-41.44753,3.80673-62.45154-2.0888-14.68598,.17544-28.39062,5.84722-41.94481,6.5543-15.66316,13.07905-31.41734,14.95568-48.53489,1.58249-14.43452,1.18645-28.63403-5.77121-41.92634-9.64984-18.43559-25.62901-26.00993-46.12256-22.35698-12.74442,2.27168-25.60115,3.92322-38.42517,5.7273-1.8536,.26076-3.80647-.18423-5.71341-.30263l-.23483-.95272Z"/>
  <path class="cls-1" d="M205.52241,210.56638c-4.92999,.09003-9.87,.03003-15.14996,.03003v-38.33002h-14.87v24.37c0,5.48999-.09003,19.26001-.09003,19.26001h-4.02002s-.14996-5.64001-.14996-7.14001c.01001-28.47998,.01996-56.96997,.01996-85.44995v-6.07001h-15.25c0,8.01996,0,15.81-.00995,23.58997-.01001,12.5-.14001,40.82001-.14001,40.82001h-4.64001s-.02997-64.58002-.03998-93.90002v-4.70996c-2.13-.33002-3.58002-.54999-5.55005-.85999v-19.88c-2.59998-.21002-4.65997-.38-6.59998-.54004-.42999-2.20996-.17999-4.82996-1.22998-5.54999-4.10004-2.79999-4.65002-6.88-4.98999-11.14996-.87-10.66003-1.69-21.33002-2.52002-32-1.60999,10.98999-2.19,21.94995-2.85999,32.89996-.10004,1.60004-.29004,3.34003-1,4.72003-1.85004,3.62-4.02002,7.07996-6.38,11.13995-1.19,.10004-3.26001,.28003-5.79004,.5v20.05005c-2.12,.27997-3.72998,.48999-5.77997,.75995v5.58002c.02002,29.47998-.03998,92.98999-.03998,92.98999h-4.32001s-.08002-40.69-.09003-58.67999v-5.65997h-15.31v5.57001c-.06,29.48999-.27002,92.76996-.27002,92.76996h-4.12s-.09998-16.57001-.09998-22.72998v-20.78998h-15.04999v38.40997c-5.25,0-9.92004-.20001-14.54004,.13-1.26001,.09003-3.41998,1.76001-3.44,2.75-.32996,14.34003,1.28003,28.40997,9.51001,40.65997,7.38,10.98004,16.85999,10.73004,23.41998-.70996,3.45001-6,5.30005-12.90002,8.28003-19.21002,4.23999-8.96997,7.60999-18.73999,13.57001-26.46002,13.19-17.06995,34.07001-16.67999,47.91998-.10999,2.75,3.29004,5.20001,6.98999,6.98999,10.87,3.13,6.79004,5.44,13.96002,8.48999,20.79004,2.70001,6.02997,5.28003,12.31,9.13,17.58997,5.29004,7.28003,12.57001,6.97003,18.55005,.15002,1.31-1.48999,2.46997-3.16003,3.42999-4.89001,6.53998-11.84998,8.59998-24.71002,8.57996-38.06,0-2.60999-1.02997-3.56-3.54999-3.52002Zm-126.39996-12.27997h-4.47003v-21.19h4.47003v21.19Zm19.50995-16.64001h-4.45996v-59.26001h4.45996v59.26001Zm29.28003-125.39001h4.46002v5.71002h-4.46002v-5.71002Zm-8.35999,10.52002h4.45996v15.82001h-4.45996v-15.82001Zm.12,114.87h-4.47003V87.29642h4.47003v94.34998Zm8.19,0h-4.47003V87.29642h4.47003v94.34998Zm.04999-99.04999v-15.82001h4.46002v15.82001h-4.46002Zm8.14001,99.04999h-4.47003V87.29642h4.47003v94.34998Zm.01001-114.87h4.46997v15.82001h-4.46997v-15.82001Zm8.17999,114.87h-4.47003V87.29642h4.47003v94.34998Zm21.53998,0h-4.46997v-59.26001h4.46997v59.26001Zm19.31,16.64001h-4.46002v-21.19h4.46002v21.19Z"/>
</svg>