<?xml version="1.0" encoding="UTF-8"?>
<svg id="Layer_1" data-name="Layer 1" xmlns="http://www.w3.org/2000/svg" viewBox="0 0 1192.33008 278.87266">
  <defs>
    <style>
      .cls-1 {
        fill: #1b354c;
      }
    </style>
  </defs>
  <path class="cls-1" d="M142.63995,23.12791c2.9447-1.73005,5.73828-3.82147,8.86044-5.12716,13.02303-5.44625,25.81461-11.79195,39.3-15.71393,27.18494-7.90622,52.51634,5.19778,63.42987,31.43316,9.05534,21.7684,7.34767,43.47334-1.54305,64.64854-4.62291,11.0104-10.45,21.58762-16.5097,31.9044-7.93867,13.51579-10.26624,27.52277-8.52032,43.13058,3.06601,27.40909,1.56793,54.60085-9.31004,80.52414-1.47511,3.51534-3.30836,6.92574-5.34224,10.15385-12.62106,20.03183-39.58737,19.70792-51.24448-.91852-3.97617-7.03558-6.15543-15.06734-9.44141-22.51791-3.0771-6.97705-5.77731-14.29448-9.98627-20.56004-7.55011-11.2393-17.86144-10.98311-25.11369,.51331-3.86265,6.12314-6.36249,13.132-9.24122,19.84244-2.88445,6.72375-5.0354,13.79297-8.29238,20.31923-5.53363,11.08813-14.54423,17.91608-27.25506,18.04645-12.34233,.12653-20.97953-6.47488-26.87006-16.98575-10.23128-18.25642-13.25434-38.3105-13.87179-58.75644-.34577-11.45,.20112-22.9976,1.3383-34.40227,1.18526-11.88693-.6674-22.88249-6.32773-33.29416-5.16845-9.50691-10.73725-18.81038-15.56606-28.4848C1.0953,86.77255-3.08905,65.74217,2.49315,43.43532,8.61451,18.97397,27.18737,1.8218,50.78127,.19529c7.28649-.50232,15.26652,.38608,22.04412,2.96408,14.41142,5.48168,28.24555,12.48245,42.30111,18.89388,.6677,.30458,1.18885,.93044,2.49291,1.98414-11.03074,1.11913-20.98027,.02795-30.87035-2.18357-5.68741-1.27176-11.36653-2.62088-17.10433-3.61944-16.57453-2.8845-29.48881,3.3707-38.90037,16.77043-11.26957,16.04507-12.87657,34.29432-8.78355,52.68965,3.05427,13.72687,8.27031,26.99501,12.86598,40.34964,3.73303,10.84789,8.81795,21.33217,8.26907,33.19804-.23055,4.98413-.83101,9.95421-1.35218,14.92136-2.42893,23.14975-.85821,45.97302,6.57331,68.09819,2.02807,6.03799,5.14042,12.06429,9.09325,17.03105,8.65638,10.87686,22.39106,10.4408,30.56605-.7851,3.47258-4.76854,5.88115-10.39978,8.2407-15.86871,2.96396-6.86983,5.07347-14.11426,8.14608-20.92905,1.95977-4.34662,4.56445-8.57076,7.63006-12.21962,10.01858-11.92464,25.44612-12.29506,35.48349-.36018,4.51205,5.36502,7.69711,12.00749,10.69882,18.437,3.1593,6.76701,5.24168,14.02873,8.07314,20.96053,1.31076,3.20892,2.98541,6.36142,5.00594,9.17224,8.93333,12.42749,23.95917,12.91705,32.48938,.19064,4.80621-7.17047,8.28627-15.64366,10.55363-24.01997,5.53625-20.45271,6.79414-41.44753,3.80673-62.45154-2.08881-14.68597,.17545-28.39063,5.84721-41.94481,6.55431-15.66316,13.07906-31.41734,14.95567-48.53489,1.58249-14.43452,1.18645-28.63403-5.77121-41.92634-9.64984-18.43559-25.62901-26.00993-46.12256-22.35698-12.74442,2.27168-25.60115,3.92322-38.42517,5.7273-1.85361,.26076-3.80647-.18423-5.71341-.30263l-.23483-.95272h-.00002Zm62.88246,187.43845c-4.92999,.09003-9.87,.03003-15.14996,.03003v-38.33002h-14.87v24.37c0,5.48999-.09003,19.26001-.09003,19.26001h-4.02002s-.14996-5.64001-.14996-7.14001c.01001-28.47998,.01996-56.96997,.01996-85.44995v-6.07001h-15.25c0,8.01996,0,15.81-.00995,23.58997-.01001,12.5-.14001,40.82001-.14001,40.82001h-4.64001s-.02997-64.58002-.03998-93.90002v-4.70996c-2.13-.33002-3.58002-.54999-5.55005-.85999v-19.88c-2.59998-.21002-4.65997-.38-6.59998-.54004-.42999-2.20996-.17999-4.82996-1.22998-5.54999-4.10004-2.79999-4.65002-6.88-4.98999-11.14996-.87-10.66003-1.69-21.33002-2.52002-32-1.60999,10.98999-2.19,21.94995-2.85999,32.89996-.10004,1.60004-.29004,3.34003-1,4.72003-1.85004,3.62-4.02002,7.07996-6.38,11.13995-1.19,.10004-3.26001,.28003-5.79004,.5v20.05005c-2.12,.27997-3.72998,.48999-5.77997,.75995v5.58002c.02002,29.47998-.03998,92.98999-.03998,92.98999h-4.32001s-.08002-40.69-.09003-58.67999v-5.65997h-15.31v5.57001c-.06,29.48999-.27002,92.76996-.27002,92.76996h-4.12s-.09998-16.57001-.09998-22.72998v-20.78998h-15.04999v38.40997c-5.25,0-9.92004-.20001-14.54004,.13-1.26001,.09003-3.41998,1.76001-3.44,2.75-.32996,14.34003,1.28003,28.40997,9.51001,40.65997,7.38,10.98004,16.85999,10.73004,23.41998-.70996,3.45001-6,5.30005-12.90002,8.28003-19.21002,4.23999-8.96997,7.60999-18.73999,13.57001-26.46002,13.19-17.06995,34.07001-16.67999,47.91998-.10999,2.75,3.29004,5.20001,6.98999,6.98999,10.87,3.13,6.79004,5.44,13.96002,8.48999,20.79004,2.70001,6.02997,5.28003,12.31,9.13,17.58997,5.29004,7.28003,12.57001,6.97003,18.55005,.15002,1.31-1.48999,2.46997-3.16003,3.42999-4.89001,6.53998-11.84998,8.59998-24.71002,8.57996-38.06,0-2.60999-1.02997-3.56-3.54999-3.52002h.00002Zm-126.39996-12.27997h-4.47003v-21.19h4.47003v21.19Zm19.50995-16.64001h-4.45996v-59.26001h4.45996v59.26001Zm29.28003-125.39001h4.46002v5.71002h-4.46002v-5.71002Zm-8.35999,10.52002h4.45996v15.82001h-4.45996v-15.82001Zm.12,114.87h-4.47003V87.29641h4.47003v94.34999Zm8.19,0h-4.47003V87.29641h4.47003v94.34999Zm.04999-99.04999v-15.82001h4.46002v15.82001h-4.46002Zm8.14001,99.04999h-4.47003V87.29641h4.47003v94.34999Zm.01001-114.87h4.46997v15.82001h-4.46997v-15.82001Zm8.17999,114.87h-4.47003V87.29641h4.47003v94.34999Zm21.53998,0h-4.46997v-59.26001h4.46997v59.26001Zm19.31,16.64001h-4.46002v-21.19h4.46002v21.19Z"/>
  <path class="cls-1" d="M337.25293,61.35601c9.48535,0,17.95605,2.33057,25.41016,6.98779,7.62402,4.65967,13.25586,10.84326,16.89844,18.55029l-19.56641,7.2417c-2.28711-4.14893-5.42188-7.43262-9.40234-9.84668-3.98145-2.41406-8.42871-3.62109-13.33984-3.62109-7.28613,0-13.38477,2.58496-18.2959,7.75049-4.91406,4.99902-7.36914,11.35156-7.36914,19.05811,0,7.62354,2.45508,14.02002,7.36914,19.18555,4.91113,5.08203,11.00977,7.62305,18.2959,7.62305,4.91113,0,9.3584-1.20703,13.33984-3.62109,3.98047-2.41406,7.11523-5.69531,9.40234-9.84668l19.56641,7.24219c-3.64258,7.7085-9.27441,13.93408-16.89844,18.67676-7.4541,4.57422-15.9248,6.86133-25.41016,6.86133-13.21387,0-24.31152-4.40332-33.28906-13.21387-8.89355-8.72314-13.34082-19.69336-13.34082-32.90723s4.44727-24.18213,13.34082-32.90723c8.97754-8.80811,20.0752-13.21338,33.28906-13.21338Zm64.79688,90.58984h-21.09082l37.48047-88.93848h16.64453l37.35352,88.93848h-20.96387l-6.09863-14.99268h-37.22656l-6.09863,14.99268Zm35.95605-33.03418l-11.18066-27.31689-11.18066,27.31689h22.36133Zm61.49512,3.81152v29.22266h-20.20117V63.00737h40.40332c9.0625,0,16.68555,2.88086,22.87012,8.64014,6.18164,5.67578,9.27441,12.74902,9.27441,21.21777,0,8.55664-3.09277,15.67139-9.27441,21.34521-6.01562,5.67578-13.63867,8.5127-22.87012,8.5127h-20.20215Zm20.20215-41.16553h-20.20215v22.61572h20.20215c3.21777,0,5.88574-1.08008,8.00391-3.23975,2.11719-2.16016,3.17676-4.84814,3.17676-8.06836,0-3.21777-1.05957-5.90771-3.17676-8.06787-2.11816-2.15967-4.78613-3.23975-8.00391-3.23975Zm61.875,70.38818h-20.20117V63.00737h20.20117v88.93848Zm36.08398-70.38818h-27.44434v-18.55029h74.96289v18.55029h-27.44434v70.38818h-20.07422V81.55767Zm61.36719,70.38818h-21.09082l37.48047-88.93848h16.64453l37.35352,88.93848h-20.96387l-6.09863-14.99268h-37.22656l-6.09863,14.99268Zm35.95605-33.03418l-11.18066-27.31689-11.18066,27.31689h22.36133Zm41.29297-55.9043h20.20117v70.38867h42.94531v18.5498h-63.14648V63.00737Zm139.50586,88.93848h-36.5918V63.00737h36.5918c13.12793,0,24.18164,4.27832,33.16113,12.83301,8.97754,8.4707,13.46777,19.01611,13.46777,31.63623,0,12.62207-4.49023,23.16797-13.46777,31.63672-8.97949,8.55615-20.0332,12.83252-33.16113,12.83252Zm0-70.38818h-16.39062v51.83838h16.39062c7.19824,0,13.29688-2.49756,18.2959-7.49658,4.91113-4.91113,7.36914-11.05371,7.36914-18.42285,0-7.28369-2.5-13.42383-7.49609-18.42285-4.99902-4.99658-11.05371-7.49609-18.16895-7.49609Zm56.79297-18.55029h66.44922v18.55029h-46.24805v16.2627h38.87891v18.55029h-38.87891v17.02539h46.88379v18.5498h-67.08496V63.00737Zm95.92676,88.93848h-19.43945V63.00737h17.91504l42.30859,54.50684V63.00737h19.43945v88.93848h-17.91504l-42.30859-54.25244v54.25244Zm96.30762-70.38818h-27.44434v-18.55029h74.96289v18.55029h-27.44434v70.38818h-20.07422V81.55767ZM323.02246,211.6436c0,.30957-.00977,.58105-.0293,.81348s-.05273,.43652-.10156,.61133c-.04883,.17383-.11133,.3291-.18848,.46484-.07812,.13574-.21387,.30078-.40723,.49414-.19434,.19434-.60156,.48926-1.22168,.88672s-1.39062,.78516-2.31055,1.16309c-.9209,.37793-1.97754,.69727-3.16992,.95898-1.19141,.26172-2.49512,.39258-3.91016,.39258-2.44238,0-4.64746-.40625-6.61426-1.2207-1.96777-.81445-3.64453-2.01562-5.03027-3.60547-1.38574-1.58887-2.45215-3.55176-3.19824-5.8877-.74609-2.33496-1.11914-5.02441-1.11914-8.06836,0-3.12012,.40234-5.90137,1.20605-8.34375,.80469-2.44238,1.93359-4.51172,3.3877-6.20801,1.4541-1.69531,3.19336-2.98926,5.21875-3.88086s4.26953-1.33789,6.73047-1.33789c1.08594,0,2.1416,.10156,3.16992,.30566,1.02637,.20312,1.97656,.46094,2.84863,.77051,.87207,.31055,1.64746,.66895,2.32617,1.0752,.67871,.40723,1.14844,.74219,1.41016,1.00391,.26172,.26074,.43066,.45996,.50879,.5957,.07715,.13574,.14062,.2959,.18945,.47949,.04785,.18457,.08691,.40234,.11621,.6543,.02832,.25195,.04297,.55273,.04297,.90137,0,.3877-.01953,.7168-.05859,.98828s-.09668,.49902-.1748,.68359-.1709,.31934-.27832,.40723c-.10645,.08691-.23828,.13086-.39453,.13086-.27246,0-.65234-.18945-1.13965-.56738s-1.11621-.79492-1.88574-1.25-1.70508-.87207-2.80566-1.25c-1.10156-.37793-2.4209-.56738-3.96094-.56738-1.67578,0-3.2002,.33398-4.57422,1.00293s-2.54785,1.65332-3.52246,2.95117c-.97461,1.29883-1.72949,2.88379-2.26562,4.75391-.53613,1.87109-.80371,4.00781-.80371,6.41113,0,2.38379,.25879,4.49219,.77539,6.32324,.51562,1.83203,1.25586,3.36328,2.2207,4.59375,.96484,1.23145,2.14844,2.16211,3.55176,2.79102,1.40234,.63086,2.99121,.94531,4.76465,.94531,1.5,0,2.81055-.18359,3.93066-.55273,1.12012-.36816,2.0752-.7793,2.86426-1.23535,.78906-.45508,1.4375-.86719,1.94434-1.23535,.50586-.36816,.90527-.55273,1.19824-.55273,.13574,0,.25293,.0293,.35059,.08691,.09766,.05859,.17578,.16992,.23438,.33496,.05762,.16504,.10156,.39258,.13086,.68262,.0293,.29102,.04395,.65918,.04395,1.10547Zm33.18555-30.15039c0,.36816-.01953,.6875-.05762,.95898-.03906,.27148-.10254,.49023-.18945,.6543-.08691,.16504-.19336,.28613-.31934,.36328-.12695,.07812-.2666,.11621-.42188,.11621h-10.58301v32.62207c0,.15527-.03906,.29102-.11621,.40723-.07812,.11621-.21387,.20801-.40723,.27637-.19434,.06738-.45117,.125-.77051,.17383-.32031,.04883-.72266,.07324-1.20703,.07324-.46484,0-.8623-.02441-1.19141-.07324-.33008-.04883-.5918-.10645-.78516-.17383-.19434-.06836-.33008-.16016-.40723-.27637s-.11621-.25195-.11621-.40723v-32.62207h-10.58301c-.15527,0-.2959-.03809-.42188-.11621-.12598-.07715-.22754-.19824-.30469-.36328-.07812-.16406-.1416-.38281-.18945-.6543-.04883-.27148-.07227-.59082-.07227-.95898s.02344-.69336,.07227-.97461c.04785-.28027,.11133-.50879,.18945-.68262,.07715-.1748,.17871-.30078,.30469-.37793s.2666-.11621,.42188-.11621h26.16699c.15527,0,.29492,.03906,.42188,.11621,.12598,.07715,.23242,.20312,.31934,.37793,.08691,.17383,.15039,.40234,.18945,.68262,.03809,.28125,.05762,.60645,.05762,.97461Zm38.53613,16.22363c0,3.04297-.3584,5.78516-1.0752,8.22754-.71777,2.44238-1.78809,4.52148-3.21289,6.23633-1.4248,1.71582-3.21289,3.03418-5.36426,3.9541-2.15137,.9209-4.66211,1.38184-7.53027,1.38184-2.83105,0-5.27734-.42188-7.3418-1.26465-2.06445-.84375-3.77051-2.06934-5.11719-3.67871-1.34766-1.6084-2.35059-3.60449-3.00879-5.98926-.65918-2.38379-.98926-5.12598-.98926-8.22754,0-2.96582,.35938-5.66016,1.07617-8.08301s1.79297-4.48242,3.22754-6.17871c1.43359-1.69531,3.22754-3.00391,5.37891-3.9248,2.15137-.91992,4.66113-1.38086,7.53027-1.38086,2.77148,0,5.18457,.41699,7.23926,1.25,2.05469,.83398,3.76562,2.0498,5.13184,3.64941,1.36621,1.59863,2.38379,3.57617,3.05273,5.93066,.66895,2.35547,1.00293,5.05469,1.00293,8.09766Zm-5.29102,.34863c0-2.13184-.18945-4.11426-.56738-5.94531-.37695-1.83203-1.00586-3.4209-1.88672-4.76855-.88086-1.34668-2.05762-2.39844-3.52832-3.1543-1.4707-.75684-3.29102-1.13477-5.45898-1.13477s-3.98828,.40723-5.45898,1.22168c-1.47168,.81348-2.66699,1.89941-3.58594,3.25586-.91992,1.35742-1.57812,2.94141-1.97559,4.75391-.39648,1.8125-.59473,3.7168-.59473,5.71289,0,2.20996,.18359,4.24512,.55176,6.10645,.36816,1.86035,.9873,3.46484,1.8584,4.81152,.87109,1.34766,2.03711,2.39453,3.49902,3.13965,1.46191,.74707,3.2959,1.12012,5.50293,1.12012,2.1875,0,4.02637-.40723,5.5166-1.22168,1.49121-.81348,2.69141-1.91406,3.60156-3.2998,.90918-1.38574,1.55762-2.98926,1.94531-4.81152,.38672-1.82227,.58105-3.75098,.58105-5.78613Zm41.06348,18.17188c0,.15527-.03906,.28613-.11621,.39258s-.21289,.19824-.40723,.27539c-.19336,.07812-.4502,.13574-.76953,.1748-.32031,.03906-.72266,.05859-1.20703,.05859s-.88672-.01953-1.20703-.05859c-.31934-.03906-.57617-.09668-.77051-.1748-.19336-.07715-.3291-.16895-.40625-.27539-.07812-.10645-.11621-.2373-.11621-.39258v-32.59277h-10.58398c-.52344,4.47754-1.0459,8.42188-1.56934,11.83301-.52344,3.41211-1.07617,6.37207-1.65723,8.88281-.58203,2.50977-1.22168,4.59863-1.91895,6.26562-.69824,1.66699-1.49805,3.00879-2.39941,4.02637-.90039,1.01758-1.91895,1.73535-3.05273,2.15137-1.13379,.41699-2.42773,.625-3.88086,.625-.19434,0-.36914-.03906-.52344-.11621-.15527-.07715-.28613-.20312-.39258-.37793-.10645-.17383-.18457-.39648-.23242-.66895-.04883-.27051-.07324-.60059-.07324-.98828,0-.48438,.02441-.88184,.07324-1.19141,.04785-.31055,.11133-.5625,.18848-.75684,.07715-.19336,.17969-.3291,.30566-.40625s.26562-.11621,.42188-.11621c.7168,0,1.39062-.14551,2.02051-.43652s1.23535-.83789,1.81738-1.64258c.58105-.80469,1.1377-1.92871,1.6709-3.37305,.5332-1.44336,1.05176-3.32422,1.55566-5.64062,.50391-2.31543,.99805-5.12109,1.4834-8.41699,.48438-3.29492,.95898-7.2002,1.42383-11.7168,.09766-.81445,.29102-1.39062,.58203-1.72949s.7168-.50879,1.2793-.50879h16.71777c.54199,0,.96875,.16992,1.2793,.50879,.30957,.33887,.46484,.84766,.46484,1.52637v34.86035Zm41.18164,0c0,.15527-.03906,.28613-.11621,.39258-.07812,.10645-.21387,.19824-.40723,.27539-.19434,.07812-.4502,.13574-.77051,.1748-.31934,.03906-.72168,.05859-1.20605,.05859-.46582,0-.86328-.01953-1.19238-.05859-.33008-.03906-.58691-.09668-.77051-.1748-.18457-.07715-.31543-.16895-.39258-.27539s-.11621-.2373-.11621-.39258v-24.68457c0-.60059,.00977-1.22559,.0293-1.875,.01855-.64941,.04785-1.23633,.08691-1.75977h-.05762c-.15625,.27246-.3252,.5625-.50977,.87305-.18359,.30957-.38281,.63477-.5957,.97363s-.42676,.67871-.63965,1.01758-.42676,.67383-.63965,1.00293l-16.28125,24.48047c-.11621,.15625-.2334,.29102-.34961,.40723s-.2666,.20898-.4502,.27637c-.18457,.06738-.40234,.11621-.6543,.14551s-.57227,.04395-.95898,.04395c-.44629,0-.80957-.01953-1.09082-.05859s-.50391-.10156-.66895-.18848c-.16504-.08789-.28125-.18945-.34863-.30566-.06836-.11621-.10156-.26172-.10156-.43652v-36.08105c0-.13574,.04395-.26172,.13086-.37793s.23242-.21289,.43555-.29102c.2041-.07715,.46582-.13574,.78516-.1748,.32031-.03809,.70215-.05762,1.14844-.05762,.48438,0,.88672,.01953,1.20703,.05762,.31934,.03906,.57617,.09766,.77051,.1748,.19336,.07812,.3291,.1748,.40723,.29102,.07715,.11621,.11621,.24219,.11621,.37793v24.8291c0,.52344-.00488,1.08594-.01465,1.68652-.00977,.60156-.04395,1.18262-.10156,1.74512h.05762c.30957-.48438,.67383-1.07129,1.09082-1.75977,.41602-.6875,.85742-1.37109,1.32227-2.0498l16.25293-24.50977c.09668-.13477,.20312-.25684,.31934-.36328,.11719-.10645,.2666-.19336,.45117-.26172,.18359-.06738,.40234-.12109,.6543-.16016,.25195-.03809,.57129-.05762,.95898-.05762,.44629,0,.80957,.01953,1.09082,.05762,.28027,.03906,.50391,.10254,.66895,.18945,.16406,.08691,.28027,.18457,.34863,.29102,.06738,.10645,.10156,.24707,.10156,.4209v36.11133Zm36.03516,0c0,.13574-.03906,.26172-.11621,.37793s-.20801,.20801-.39258,.27637c-.18457,.06738-.43164,.125-.74121,.17383-.31055,.04883-.70801,.07324-1.19238,.07324-.44531,0-.83301-.02441-1.16211-.07324-.33008-.04883-.59668-.10645-.7998-.17383-.2041-.06836-.34863-.16016-.43652-.27637-.08691-.11621-.13086-.24219-.13086-.37793v-14.4209c-1.12402,.11621-2.21973,.21777-3.28516,.30469-1.06641,.08789-2.15137,.13086-3.25684,.13086-1.86035,0-3.5957-.14941-5.2041-.4502s-3.00488-.87207-4.18652-1.71582c-1.18262-.84277-2.10742-2.01074-2.77637-3.50293-.66895-1.49316-1.00293-3.43164-1.00293-5.81543v-10.69922c0-.13574,.03809-.26172,.11621-.37793,.07715-.11621,.20801-.20801,.39258-.27637,.18359-.06738,.43555-.12598,.75586-.1748,.31934-.04785,.71191-.07227,1.17676-.07227,.48438,0,.88184,.02441,1.19238,.07227,.30957,.04883,.57129,.10742,.78516,.1748,.21289,.06836,.3584,.16016,.43652,.27637,.07715,.11621,.11621,.24219,.11621,.37793v10.35059c0,1.16309,.12598,2.20996,.37793,3.13965,.25098,.93066,.69727,1.72559,1.33691,2.38477s1.51172,1.16211,2.61719,1.51172c1.10449,.34863,2.51953,.52344,4.24512,.52344,1.06543,0,2.10742-.03906,3.125-.11621,1.01758-.07812,2.03027-.16504,3.03809-.26172v-17.53223c0-.13574,.04395-.26172,.13086-.37793,.08789-.11621,.23242-.20801,.43652-.27637,.20312-.06738,.46973-.12598,.7998-.1748,.3291-.04785,.7168-.07227,1.16211-.07227,.48438,0,.88184,.02441,1.19238,.07227,.30957,.04883,.55664,.10742,.74121,.1748,.18457,.06836,.31543,.16016,.39258,.27637s.11621,.24219,.11621,.37793v36.16895Zm40.10547-.0293c0,.15527-.03906,.29102-.11621,.40723-.07812,.11621-.21387,.20801-.40723,.27637-.19434,.06738-.45117,.125-.77051,.17383-.32031,.04883-.71289,.07324-1.17773,.07324-.50391,0-.91113-.02441-1.2207-.07324-.31055-.04883-.5625-.10645-.75586-.17383-.19434-.06836-.33008-.16016-.40723-.27637-.07812-.11621-.11621-.25195-.11621-.40723v-16.68848h-17.125v16.68848c0,.15527-.03906,.29102-.11621,.40723-.07812,.11621-.21387,.20801-.40723,.27637-.19434,.06738-.45117,.125-.77051,.17383-.32031,.04883-.72266,.07324-1.20703,.07324-.46484,0-.8623-.02441-1.19141-.07324-.33008-.04883-.5918-.10645-.78516-.17383-.19434-.06836-.33008-.16016-.40723-.27637-.07812-.11621-.11621-.25195-.11621-.40723v-36.11035c0-.15527,.03809-.29102,.11621-.40723,.07715-.11621,.21289-.20801,.40723-.27637,.19336-.06738,.45508-.12598,.78516-.1748,.3291-.04785,.72656-.07227,1.19141-.07227,.48438,0,.88672,.02441,1.20703,.07227,.31934,.04883,.57617,.10742,.77051,.1748,.19336,.06836,.3291,.16016,.40723,.27637,.07715,.11621,.11621,.25195,.11621,.40723v15.06055h17.125v-15.06055c0-.15527,.03809-.29102,.11621-.40723,.07715-.11621,.21289-.20801,.40723-.27637,.19336-.06738,.44531-.12598,.75586-.1748,.30957-.04785,.7168-.07227,1.2207-.07227,.46484,0,.85742,.02441,1.17773,.07227,.31934,.04883,.57617,.10742,.77051,.1748,.19336,.06836,.3291,.16016,.40723,.27637,.07715,.11621,.11621,.25195,.11621,.40723v36.11035Zm41.15137-1.01758c.15527,.42676,.2373,.77051,.24707,1.03223s-.0625,.46094-.21777,.5957c-.15527,.13574-.41211,.22266-.77051,.26172s-.83887,.05859-1.43945,.05859-1.08008-.01465-1.43848-.04395c-.35938-.0293-.63086-.07812-.81445-.14551-.18457-.06738-.32031-.16016-.40723-.27637s-.16992-.26172-.24707-.43555l-3.22754-9.15918h-15.6416l-3.08203,9.04297c-.05859,.17383-.13574,.32422-.23242,.4502-.09766,.12598-.23828,.23242-.42188,.32031-.18457,.08691-.44629,.14941-.78516,.18848s-.78027,.05859-1.32227,.05859c-.5625,0-1.02344-.02441-1.38184-.07324s-.61035-.14062-.75586-.27637c-.14551-.13477-.21289-.33398-.20312-.5957s.0918-.60547,.24707-1.03223l12.61816-34.94727c.07715-.21289,.17871-.3877,.30566-.52344,.12598-.13574,.30957-.24219,.55176-.32031,.24219-.07715,.55273-.13086,.93066-.15918,.37793-.0293,.85742-.04395,1.43945-.04395,.62012,0,1.13379,.01465,1.54102,.04395,.40723,.02832,.73633,.08203,.98828,.15918,.25195,.07812,.44531,.18945,.58203,.33496,.13477,.14551,.24219,.32422,.31934,.53809l12.61816,34.94727Zm-16.19434-30.84863h-.0293l-6.4834,18.75391h13.08398l-6.57129-18.75391Zm48.50781,31.89551c0,.15527-.03906,.28613-.11621,.39258s-.21289,.19824-.40723,.27539c-.19336,.07812-.4502,.13574-.77051,.1748-.31934,.03906-.72168,.05859-1.20605,.05859s-.88672-.01953-1.20703-.05859c-.31934-.03906-.57129-.09668-.75586-.1748-.18457-.07715-.31934-.16895-.40723-.27539-.08691-.10645-.13086-.2373-.13086-.39258v-15.7002h-3.75c-1.51172,0-2.6709,.15527-3.47461,.46484-.80469,.31055-1.50195,.76074-2.09375,1.35156-.59082,.5918-1.09473,1.30371-1.51172,2.1377-.41699,.83301-.81836,1.76367-1.20605,2.79102l-3.22754,8.66406c-.09766,.23242-.19922,.42676-.30566,.58105-.10645,.15625-.2666,.27637-.47949,.36426-.21387,.08691-.47949,.14941-.7998,.18848-.31934,.03906-.73145,.05859-1.23535,.05859-.5625,0-1.00781-.02441-1.33691-.07324-.33008-.04883-.58691-.11133-.77051-.18848-.18457-.07715-.30566-.16992-.36426-.27637-.05762-.10645-.08691-.2373-.08691-.39258,0-.19336,.0293-.42188,.08691-.68359,.05859-.26172,.2041-.68262,.43652-1.26465l3.08203-7.99512c.36816-.96875,.75586-1.8418,1.16309-2.61719,.40723-.77441,.84277-1.45801,1.30859-2.0498,.46484-.59082,.96875-1.09473,1.51172-1.51172,.54199-.41602,1.14355-.75098,1.80273-1.00293-1.16309-.29102-2.20996-.69238-3.14062-1.20703-.93066-.5127-1.71484-1.15234-2.35449-1.91895-.63965-.76465-1.12988-1.64258-1.46875-2.63086s-.50879-2.08301-.50879-3.28516c0-1.55078,.26172-2.98047,.78516-4.28906,.52344-1.30762,1.31738-2.43652,2.38379-3.38672,1.06641-.94922,2.4082-1.69141,4.02734-2.22461,1.61816-.53223,3.91016-.79883,6.87598-.79883h7.79199c.46484,0,.8916,.15039,1.2793,.4502,.3877,.30078,.58105,.8291,.58105,1.58496v34.86035Zm-5.00098-32.76758h-4.76758c-1.97754,0-3.46973,.16016-4.47754,.47949-1.00781,.32031-1.82715,.7666-2.45703,1.33789-.62988,.57227-1.08594,1.25-1.36621,2.03516-.28125,.78516-.42188,1.63281-.42188,2.54395s.15039,1.76465,.45117,2.55859c.2998,.79492,.77051,1.49316,1.41016,2.09375s1.46777,1.07129,2.48535,1.41016,2.42773,.50879,4.23047,.50879h4.91309v-12.96777Zm61.42969,32.76758c0,.15527-.03906,.28613-.11621,.39258s-.21289,.19824-.40723,.27539c-.19336,.07812-.4502,.13574-.77051,.1748-.31934,.03906-.72168,.05859-1.20605,.05859-.46484,0-.8623-.01953-1.19238-.05859-.3291-.03906-.58594-.09668-.77051-.1748-.18457-.07715-.31934-.16895-.40723-.27539-.08691-.10645-.12988-.2373-.12988-.39258v-32.56348h-17.00879v32.56348c0,.15527-.04395,.28613-.13086,.39258-.08789,.10645-.22363,.19824-.40723,.27539-.18457,.07812-.43652,.13574-.75586,.1748-.32031,.03906-.72266,.05859-1.20703,.05859s-.88672-.01953-1.20605-.05859c-.32031-.03906-.57715-.09668-.77051-.1748-.19434-.07715-.33008-.16895-.40723-.27539-.07812-.10645-.11621-.2373-.11621-.39258v-34.86035c0-.67871,.16895-1.1875,.50879-1.52637,.33887-.33887,.77051-.50879,1.29395-.50879h23.46289c.54199,0,.96875,.16992,1.2793,.50879,.30957,.33887,.46484,.84766,.46484,1.52637v34.86035Zm44.49512-18.52051c0,3.04297-.3584,5.78516-1.0752,8.22754-.71777,2.44238-1.78809,4.52148-3.21289,6.23633-1.4248,1.71582-3.21289,3.03418-5.36426,3.9541-2.15137,.9209-4.66211,1.38184-7.53027,1.38184-2.83105,0-5.27734-.42188-7.3418-1.26465-2.06445-.84375-3.77051-2.06934-5.11719-3.67871-1.34766-1.6084-2.35059-3.60449-3.00879-5.98926-.65918-2.38379-.98926-5.12598-.98926-8.22754,0-2.96582,.35938-5.66016,1.07617-8.08301s1.79297-4.48242,3.22754-6.17871c1.43359-1.69531,3.22754-3.00391,5.37891-3.9248,2.15137-.91992,4.66113-1.38086,7.53027-1.38086,2.77148,0,5.18457,.41699,7.23926,1.25,2.05469,.83398,3.76562,2.0498,5.13184,3.64941,1.36621,1.59863,2.38379,3.57617,3.05273,5.93066,.66895,2.35547,1.00293,5.05469,1.00293,8.09766Zm-5.29102,.34863c0-2.13184-.18945-4.11426-.56738-5.94531-.37695-1.83203-1.00586-3.4209-1.88672-4.76855-.88086-1.34668-2.05762-2.39844-3.52832-3.1543-1.4707-.75684-3.29102-1.13477-5.45898-1.13477s-3.98828,.40723-5.45898,1.22168c-1.47168,.81348-2.66699,1.89941-3.58594,3.25586-.91992,1.35742-1.57812,2.94141-1.97559,4.75391-.39648,1.8125-.59473,3.7168-.59473,5.71289,0,2.20996,.18359,4.24512,.55176,6.10645,.36816,1.86035,.9873,3.46484,1.8584,4.81152,.87109,1.34766,2.03711,2.39453,3.49902,3.13965,1.46191,.74707,3.2959,1.12012,5.50293,1.12012,2.1875,0,4.02637-.40723,5.5166-1.22168,1.49121-.81348,2.69141-1.91406,3.60156-3.2998,.90918-1.38574,1.55762-2.98926,1.94531-4.81152,.38672-1.82227,.58105-3.75098,.58105-5.78613Zm41.06445,18.17188c0,.15527-.03906,.28613-.11621,.39258s-.21289,.19824-.40723,.27539c-.19336,.07812-.4502,.13574-.76953,.1748-.32031,.03906-.72266,.05859-1.20703,.05859s-.88672-.01953-1.20703-.05859c-.31934-.03906-.57617-.09668-.77051-.1748-.19336-.07715-.3291-.16895-.40625-.27539-.07812-.10645-.11621-.2373-.11621-.39258v-32.59277h-10.58398c-.52344,4.47754-1.0459,8.42188-1.56934,11.83301-.52344,3.41211-1.07617,6.37207-1.65723,8.88281-.58203,2.50977-1.22168,4.59863-1.91895,6.26562-.69824,1.66699-1.49805,3.00879-2.39941,4.02637-.90039,1.01758-1.91895,1.73535-3.05273,2.15137-1.13379,.41699-2.42773,.625-3.88086,.625-.19434,0-.36914-.03906-.52344-.11621-.15527-.07715-.28613-.20312-.39258-.37793-.10645-.17383-.18457-.39648-.23242-.66895-.04883-.27051-.07324-.60059-.07324-.98828,0-.48438,.02441-.88184,.07324-1.19141,.04785-.31055,.11133-.5625,.18848-.75684,.07715-.19336,.17969-.3291,.30566-.40625s.26562-.11621,.42188-.11621c.7168,0,1.39062-.14551,2.02051-.43652s1.23535-.83789,1.81738-1.64258c.58105-.80469,1.1377-1.92871,1.6709-3.37305,.5332-1.44336,1.05176-3.32422,1.55566-5.64062,.50391-2.31543,.99805-5.12109,1.4834-8.41699,.48438-3.29492,.95898-7.2002,1.42383-11.7168,.09766-.81445,.29102-1.39062,.58203-1.72949s.7168-.50879,1.2793-.50879h16.71777c.54199,0,.96875,.16992,1.2793,.50879,.30957,.33887,.46484,.84766,.46484,1.52637v34.86035Zm41.18164,0c0,.15527-.03906,.28613-.11621,.39258-.07812,.10645-.21387,.19824-.40723,.27539-.19434,.07812-.4502,.13574-.77051,.1748-.31934,.03906-.72168,.05859-1.20605,.05859-.46582,0-.86328-.01953-1.19238-.05859-.33008-.03906-.58691-.09668-.77051-.1748-.18457-.07715-.31543-.16895-.39258-.27539s-.11621-.2373-.11621-.39258v-24.68457c0-.60059,.00977-1.22559,.0293-1.875,.01855-.64941,.04785-1.23633,.08691-1.75977h-.05762c-.15625,.27246-.3252,.5625-.50977,.87305-.18359,.30957-.38281,.63477-.5957,.97363s-.42676,.67871-.63965,1.01758-.42676,.67383-.63965,1.00293l-16.28125,24.48047c-.11621,.15625-.2334,.29102-.34961,.40723s-.2666,.20898-.4502,.27637c-.18457,.06738-.40234,.11621-.6543,.14551s-.57227,.04395-.95898,.04395c-.44629,0-.80957-.01953-1.09082-.05859s-.50391-.10156-.66895-.18848c-.16504-.08789-.28125-.18945-.34863-.30566-.06836-.11621-.10156-.26172-.10156-.43652v-36.08105c0-.13574,.04395-.26172,.13086-.37793s.23242-.21289,.43555-.29102c.2041-.07715,.46582-.13574,.78516-.1748,.32031-.03809,.70215-.05762,1.14844-.05762,.48438,0,.88672,.01953,1.20703,.05762,.31934,.03906,.57617,.09766,.77051,.1748,.19336,.07812,.3291,.1748,.40723,.29102,.07715,.11621,.11621,.24219,.11621,.37793v24.8291c0,.52344-.00488,1.08594-.01465,1.68652-.00977,.60156-.04395,1.18262-.10156,1.74512h.05762c.30957-.48438,.67383-1.07129,1.09082-1.75977,.41602-.6875,.85742-1.37109,1.32227-2.0498l16.25293-24.50977c.09668-.13477,.20312-.25684,.31934-.36328,.11719-.10645,.2666-.19336,.45117-.26172,.18359-.06738,.40234-.12109,.6543-.16016,.25195-.03809,.57129-.05762,.95898-.05762,.44629,0,.80957,.01953,1.09082,.05762,.28027,.03906,.50391,.10254,.66895,.18945,.16406,.08691,.28027,.18457,.34863,.29102,.06738,.10645,.10156,.24707,.10156,.4209v36.11133Zm38.0127-.05859c0,.1748-.03906,.32031-.11621,.43652-.07812,.11621-.20898,.21289-.39258,.29004-.18457,.07812-.44141,.13574-.77051,.1748-.33008,.03906-.7373,.05859-1.22168,.05859-.56152,0-1.0127-.02441-1.35156-.07324s-.61035-.12109-.81445-.21777c-.20312-.09668-.3584-.21777-.46484-.36328s-.18848-.32422-.24707-.53809l-3.45996-9.1875c-.46484-1.24023-.97852-2.29688-1.54102-3.16895s-1.20605-1.59473-1.93359-2.16602c-.72656-.57227-1.55566-.99316-2.48535-1.26465-.93066-.27148-1.97754-.40723-3.14062-.40723h-2.09277v16.45605c0,.15527-.03906,.29102-.11621,.40723-.07812,.11621-.21387,.20801-.40723,.27637-.19434,.06738-.45117,.125-.77051,.17383-.32031,.04883-.72266,.07324-1.20703,.07324-.46484,0-.8623-.02441-1.19141-.07324-.33008-.04883-.5918-.10645-.78516-.17383-.19434-.06836-.33008-.16016-.40723-.27637-.07812-.11621-.11621-.25195-.11621-.40723v-36.13965c0-.13574,.03809-.26172,.11621-.37793,.07715-.11621,.21289-.20801,.40723-.27637,.19336-.06738,.45508-.12598,.78516-.1748,.3291-.04785,.72656-.07227,1.19141-.07227,.48438,0,.88672,.02441,1.20703,.07227,.31934,.04883,.57617,.10742,.77051,.1748,.19336,.06836,.3291,.16016,.40723,.27637,.07715,.11621,.11621,.24219,.11621,.37793v15.37988h2.09277c1.16309,0,2.18066-.13965,3.05273-.4209,.87305-.28125,1.64355-.70215,2.31152-1.26465,.66895-.5625,1.25977-1.27441,1.77344-2.1377,.51367-.8623,.97461-1.88477,1.38184-3.06738l2.84863-8.19824c.05859-.19434,.13574-.36816,.23242-.52344,.09766-.15527,.24219-.28125,.43652-.37793,.19336-.09668,.45996-.16992,.7998-.21875,.33887-.04785,.78027-.07227,1.32227-.07227,.50391,0,.91113,.01953,1.22168,.05762,.30957,.03906,.55664,.09766,.74121,.1748,.18359,.07812,.30566,.1748,.36328,.29102,.05859,.11621,.08789,.25195,.08789,.40723,0,.21289-.03418,.4502-.10254,.71191-.06738,.26172-.15918,.56738-.27539,.91602l-2.99512,7.82129c-.42676,1.18262-.86816,2.2002-1.32324,3.05273s-.95508,1.58398-1.49707,2.19531c-.54297,.61035-1.13379,1.11426-1.77344,1.51172s-1.35742,.71191-2.15137,.94434v.05859c.91016,.33008,1.71973,.71191,2.42773,1.14844,.70703,.43555,1.36133,.97363,1.96191,1.61328s1.15332,1.41016,1.65723,2.31152,.99805,1.98242,1.4834,3.24219l3.54688,8.95508c.19336,.50391,.30957,.85742,.34863,1.06055,.03906,.2041,.05859,.38379,.05859,.53809Zm36.64453,.05859c0,.15527-.03906,.28613-.11621,.39258s-.21289,.19824-.40723,.27539c-.19336,.07812-.4502,.13574-.76953,.1748-.32031,.03906-.72266,.05859-1.20703,.05859s-.88672-.01953-1.20703-.05859c-.31934-.03906-.57617-.09668-.77051-.1748-.19336-.07715-.3291-.16895-.40625-.27539-.07812-.10645-.11621-.2373-.11621-.39258v-32.59277h-10.58398c-.52344,4.47754-1.0459,8.42188-1.56934,11.83301-.52344,3.41211-1.07617,6.37207-1.65723,8.88281-.58203,2.50977-1.22168,4.59863-1.91895,6.26562-.69824,1.66699-1.49805,3.00879-2.39941,4.02637-.90039,1.01758-1.91895,1.73535-3.05273,2.15137-1.13379,.41699-2.42773,.625-3.88086,.625-.19434,0-.36914-.03906-.52344-.11621-.15527-.07715-.28613-.20312-.39258-.37793-.10645-.17383-.18457-.39648-.23242-.66895-.04883-.27051-.07324-.60059-.07324-.98828,0-.48438,.02441-.88184,.07324-1.19141,.04785-.31055,.11133-.5625,.18848-.75684,.07715-.19336,.17969-.3291,.30566-.40625s.26562-.11621,.42188-.11621c.7168,0,1.39062-.14551,2.02051-.43652s1.23535-.83789,1.81738-1.64258c.58105-.80469,1.1377-1.92871,1.6709-3.37305,.5332-1.44336,1.05176-3.32422,1.55566-5.64062,.50391-2.31543,.99805-5.12109,1.4834-8.41699,.48438-3.29492,.95898-7.2002,1.42383-11.7168,.09766-.81445,.29102-1.39062,.58203-1.72949s.7168-.50879,1.2793-.50879h16.71777c.54199,0,.96875,.16992,1.2793,.50879,.30957,.33887,.46484,.84766,.46484,1.52637v34.86035Zm41.18164,0c0,.15527-.03906,.28613-.11621,.39258-.07812,.10645-.21387,.19824-.40723,.27539-.19434,.07812-.4502,.13574-.77051,.1748-.31934,.03906-.72168,.05859-1.20605,.05859-.46582,0-.86328-.01953-1.19238-.05859-.33008-.03906-.58691-.09668-.77051-.1748-.18457-.07715-.31543-.16895-.39258-.27539s-.11621-.2373-.11621-.39258v-24.68457c0-.60059,.00977-1.22559,.0293-1.875,.01855-.64941,.04785-1.23633,.08691-1.75977h-.05762c-.15625,.27246-.3252,.5625-.50977,.87305-.18359,.30957-.38281,.63477-.5957,.97363s-.42676,.67871-.63965,1.01758-.42676,.67383-.63965,1.00293l-16.28125,24.48047c-.11621,.15625-.2334,.29102-.34961,.40723s-.2666,.20898-.4502,.27637c-.18457,.06738-.40234,.11621-.6543,.14551s-.57227,.04395-.95898,.04395c-.44629,0-.80957-.01953-1.09082-.05859s-.50391-.10156-.66895-.18848c-.16504-.08789-.28125-.18945-.34863-.30566-.06836-.11621-.10156-.26172-.10156-.43652v-36.08105c0-.13574,.04395-.26172,.13086-.37793s.23242-.21289,.43555-.29102c.2041-.07715,.46582-.13574,.78516-.1748,.32031-.03809,.70215-.05762,1.14844-.05762,.48438,0,.88672,.01953,1.20703,.05762,.31934,.03906,.57617,.09766,.77051,.1748,.19336,.07812,.3291,.1748,.40723,.29102,.07715,.11621,.11621,.24219,.11621,.37793v24.8291c0,.52344-.00488,1.08594-.01465,1.68652-.00977,.60156-.04395,1.18262-.10156,1.74512h.05762c.30957-.48438,.67383-1.07129,1.09082-1.75977,.41602-.6875,.85742-1.37109,1.32227-2.0498l16.25293-24.50977c.09668-.13477,.20312-.25684,.31934-.36328,.11719-.10645,.2666-.19336,.45117-.26172,.18359-.06738,.40234-.12109,.6543-.16016,.25195-.03809,.57129-.05762,.95898-.05762,.44629,0,.80957,.01953,1.09082,.05762,.28027,.03906,.50391,.10254,.66895,.18945,.16406,.08691,.28027,.18457,.34863,.29102,.06738,.10645,.10156,.24707,.10156,.4209v36.11133Zm40.07715-.0293c0,.15527-.03906,.29102-.11621,.40723-.07812,.11621-.21387,.20801-.40723,.27637-.19434,.06738-.45117,.125-.77051,.17383-.32031,.04883-.71289,.07324-1.17773,.07324-.50391,0-.91113-.02441-1.2207-.07324-.31055-.04883-.5625-.10645-.75586-.17383-.19434-.06836-.33008-.16016-.40723-.27637-.07812-.11621-.11621-.25195-.11621-.40723v-16.68848h-17.125v16.68848c0,.15527-.03906,.29102-.11621,.40723-.07812,.11621-.21387,.20801-.40723,.27637-.19434,.06738-.45117,.125-.77051,.17383-.32031,.04883-.72266,.07324-1.20703,.07324-.46484,0-.8623-.02441-1.19141-.07324-.33008-.04883-.5918-.10645-.78516-.17383-.19434-.06836-.33008-.16016-.40723-.27637-.07812-.11621-.11621-.25195-.11621-.40723v-36.11035c0-.15527,.03809-.29102,.11621-.40723,.07715-.11621,.21289-.20801,.40723-.27637,.19336-.06738,.45508-.12598,.78516-.1748,.3291-.04785,.72656-.07227,1.19141-.07227,.48438,0,.88672,.02441,1.20703,.07227,.31934,.04883,.57617,.10742,.77051,.1748,.19336,.06836,.3291,.16016,.40723,.27637,.07715,.11621,.11621,.25195,.11621,.40723v15.06055h17.125v-15.06055c0-.15527,.03809-.29102,.11621-.40723,.07715-.11621,.21289-.20801,.40723-.27637,.19336-.06738,.44531-.12598,.75586-.1748,.30957-.04785,.7168-.07227,1.2207-.07227,.46484,0,.85742,.02441,1.17773,.07227,.31934,.04883,.57617,.10742,.77051,.1748,.19336,.06836,.3291,.16016,.40723,.27637,.07715,.11621,.11621,.25195,.11621,.40723v36.11035Zm41.18066,.0293c0,.15527-.03906,.28613-.11621,.39258-.07812,.10645-.21387,.19824-.40723,.27539-.19434,.07812-.4502,.13574-.77051,.1748-.31934,.03906-.72168,.05859-1.20605,.05859-.46582,0-.86328-.01953-1.19238-.05859-.33008-.03906-.58691-.09668-.77051-.1748-.18457-.07715-.31543-.16895-.39258-.27539s-.11621-.2373-.11621-.39258v-24.68457c0-.60059,.00977-1.22559,.0293-1.875,.01855-.64941,.04785-1.23633,.08691-1.75977h-.05762c-.15625,.27246-.3252,.5625-.50977,.87305-.18359,.30957-.38281,.63477-.5957,.97363s-.42676,.67871-.63965,1.01758-.42676,.67383-.63965,1.00293l-16.28125,24.48047c-.11621,.15625-.2334,.29102-.34961,.40723s-.2666,.20898-.4502,.27637c-.18457,.06738-.40234,.11621-.6543,.14551s-.57227,.04395-.95898,.04395c-.44629,0-.80957-.01953-1.09082-.05859s-.50391-.10156-.66895-.18848c-.16504-.08789-.28125-.18945-.34863-.30566-.06836-.11621-.10156-.26172-.10156-.43652v-36.08105c0-.13574,.04395-.26172,.13086-.37793s.23242-.21289,.43555-.29102c.2041-.07715,.46582-.13574,.78516-.1748,.32031-.03809,.70215-.05762,1.14844-.05762,.48438,0,.88672,.01953,1.20703,.05762,.31934,.03906,.57617,.09766,.77051,.1748,.19336,.07812,.3291,.1748,.40723,.29102,.07715,.11621,.11621,.24219,.11621,.37793v24.8291c0,.52344-.00488,1.08594-.01465,1.68652-.00977,.60156-.04395,1.18262-.10156,1.74512h.05762c.30957-.48438,.67383-1.07129,1.09082-1.75977,.41602-.6875,.85742-1.37109,1.32227-2.0498l16.25293-24.50977c.09668-.13477,.20312-.25684,.31934-.36328,.11719-.10645,.2666-.19336,.45117-.26172,.18359-.06738,.40234-.12109,.6543-.16016,.25195-.03809,.57129-.05762,.95898-.05762,.44629,0,.80957,.01953,1.09082,.05762,.28027,.03906,.50391,.10254,.66895,.18945,.16406,.08691,.28027,.18457,.34863,.29102,.06738,.10645,.10156,.24707,.10156,.4209v36.11133Zm38.01172-.05859c0,.1748-.03906,.32031-.11621,.43652-.07812,.11621-.20898,.21289-.39258,.29004-.18457,.07812-.44141,.13574-.77051,.1748-.33008,.03906-.7373,.05859-1.22168,.05859-.56152,0-1.0127-.02441-1.35156-.07324s-.61035-.12109-.81445-.21777c-.20312-.09668-.3584-.21777-.46484-.36328s-.18848-.32422-.24707-.53809l-3.45996-9.1875c-.46484-1.24023-.97852-2.29688-1.54102-3.16895s-1.20605-1.59473-1.93359-2.16602c-.72656-.57227-1.55566-.99316-2.48535-1.26465-.93066-.27148-1.97754-.40723-3.14062-.40723h-2.09277v16.45605c0,.15527-.03906,.29102-.11621,.40723-.07812,.11621-.21387,.20801-.40723,.27637-.19434,.06738-.45117,.125-.77051,.17383-.32031,.04883-.72266,.07324-1.20703,.07324-.46484,0-.8623-.02441-1.19141-.07324-.33008-.04883-.5918-.10645-.78516-.17383-.19434-.06836-.33008-.16016-.40723-.27637-.07812-.11621-.11621-.25195-.11621-.40723v-36.13965c0-.13574,.03809-.26172,.11621-.37793,.07715-.11621,.21289-.20801,.40723-.27637,.19336-.06738,.45508-.12598,.78516-.1748,.3291-.04785,.72656-.07227,1.19141-.07227,.48438,0,.88672,.02441,1.20703,.07227,.31934,.04883,.57617,.10742,.77051,.1748,.19336,.06836,.3291,.16016,.40723,.27637,.07715,.11621,.11621,.24219,.11621,.37793v15.37988h2.09277c1.16309,0,2.18066-.13965,3.05273-.4209,.87305-.28125,1.64355-.70215,2.31152-1.26465,.66895-.5625,1.25977-1.27441,1.77344-2.1377,.51367-.8623,.97461-1.88477,1.38184-3.06738l2.84863-8.19824c.05859-.19434,.13574-.36816,.23242-.52344,.09766-.15527,.24219-.28125,.43652-.37793,.19336-.09668,.45996-.16992,.7998-.21875,.33887-.04785,.78027-.07227,1.32227-.07227,.50391,0,.91113,.01953,1.22168,.05762,.30957,.03906,.55664,.09766,.74121,.1748,.18359,.07812,.30566,.1748,.36328,.29102,.05859,.11621,.08789,.25195,.08789,.40723,0,.21289-.03418,.4502-.10254,.71191-.06738,.26172-.15918,.56738-.27539,.91602l-2.99512,7.82129c-.42676,1.18262-.86816,2.2002-1.32324,3.05273s-.95508,1.58398-1.49707,2.19531c-.54297,.61035-1.13379,1.11426-1.77344,1.51172s-1.35742,.71191-2.15137,.94434v.05859c.91016,.33008,1.71973,.71191,2.42773,1.14844,.70703,.43555,1.36133,.97363,1.96191,1.61328s1.15332,1.41016,1.65723,2.31152,.99805,1.98242,1.4834,3.24219l3.54688,8.95508c.19336,.50391,.30957,.85742,.34863,1.06055,.03906,.2041,.05859,.38379,.05859,.53809Zm38.44824-.98828c.15527,.42676,.2373,.77051,.24707,1.03223s-.0625,.46094-.21777,.5957c-.15527,.13574-.41211,.22266-.77051,.26172s-.83887,.05859-1.43945,.05859-1.08008-.01465-1.43848-.04395c-.35938-.0293-.63086-.07812-.81445-.14551-.18457-.06738-.32031-.16016-.40723-.27637s-.16992-.26172-.24707-.43555l-3.22754-9.15918h-15.6416l-3.08203,9.04297c-.05859,.17383-.13574,.32422-.23242,.4502-.09766,.12598-.23828,.23242-.42188,.32031-.18457,.08691-.44629,.14941-.78516,.18848s-.78027,.05859-1.32227,.05859c-.5625,0-1.02344-.02441-1.38184-.07324s-.61035-.14062-.75586-.27637c-.14551-.13477-.21289-.33398-.20312-.5957s.0918-.60547,.24707-1.03223l12.61816-34.94727c.07715-.21289,.17871-.3877,.30566-.52344,.12598-.13574,.30957-.24219,.55176-.32031,.24219-.07715,.55273-.13086,.93066-.15918,.37793-.0293,.85742-.04395,1.43945-.04395,.62012,0,1.13379,.01465,1.54102,.04395,.40723,.02832,.73633,.08203,.98828,.15918,.25195,.07812,.44531,.18945,.58203,.33496,.13477,.14551,.24219,.32422,.31934,.53809l12.61816,34.94727Zm-16.19434-30.84863h-.0293l-6.4834,18.75391h13.08398l-6.57129-18.75391Zm68.75586,30.4707c0,.60059-.16504,1.10938-.49512,1.52637-.3291,.41699-.8623,.625-1.59863,.625h-2.12207c-.52344,0-.97949-.0625-1.36719-.18945-.3877-.125-.74609-.34375-1.0752-.65332-.33008-.31055-.64453-.7168-.94531-1.22168-.30078-.50391-.63477-1.12402-1.00293-1.86035l-13.54883-27.7373h-.0293v30.93555c0,.15527-.03418,.28613-.10156,.39258-.06836,.10645-.18945,.19824-.36328,.27539-.1748,.07812-.41211,.13574-.71289,.1748s-.68262,.05859-1.14844,.05859c-.44531,0-.82324-.01953-1.13379-.05859-.30957-.03906-.55176-.09668-.72656-.1748-.1748-.07715-.30078-.16895-.37793-.27539-.07812-.10645-.11621-.2373-.11621-.39258v-34.74414c0-.3877,.05762-.7168,.17383-.98926,.11719-.27051,.2666-.49414,.45117-.66797,.18359-.1748,.40234-.30078,.6543-.37793s.49414-.11621,.72656-.11621h2.64551c.52344,0,.97852,.05273,1.36719,.15918,.3877,.10742,.72168,.27637,1.00293,.50879,.28027,.2334,.53809,.52344,.77051,.87207,.23242,.34961,.45508,.75684,.66895,1.22168l13.69336,28.17285h.0293v-30.20801c0-.13574,.03906-.26172,.11621-.37793s.19922-.21289,.36328-.29102c.16504-.07715,.39746-.13574,.69824-.1748,.2998-.03809,.68359-.05762,1.14844-.05762,.44531,0,.82324,.01953,1.13379,.05762,.30957,.03906,.55273,.09766,.72656,.1748,.1748,.07812,.30078,.1748,.37793,.29102s.11719,.24219,.11719,.37793v34.74414Zm26.0791-18.34668c0,1.58984-.23242,3.06738-.69727,4.43457-.46582,1.36621-1.14453,2.54883-2.03516,3.54688-.8916,.99805-1.98242,1.7832-3.27148,2.35547-1.28906,.57129-2.75684,.85742-4.4043,.85742-1.68652,0-3.15039-.25195-4.39062-.75586s-2.2627-1.2168-3.06738-2.1377c-.80469-.91992-1.41016-2.04395-1.81738-3.37207-.40625-1.32715-.61035-2.8252-.61035-4.49219,0-1.58887,.22754-3.07227,.68359-4.44824,.45508-1.37598,1.11914-2.55859,1.99121-3.54688,.87207-.98926,1.96289-1.76367,3.27148-2.32617,1.30762-.5625,2.81445-.84375,4.52051-.84375,1.60938,0,3.02441,.25781,4.24512,.77051,1.2207,.51465,2.24805,1.23633,3.08203,2.16602,.83301,.93066,1.45801,2.05566,1.875,3.37305,.41699,1.31836,.625,2.79102,.625,4.41895Zm-.66797,18.52051c0,.65918-.07812,1.1543-.2334,1.4834-.15527,.33008-.40625,.49414-.75586,.49414h-16.86328c-.34863,0-.60547-.16406-.77051-.49414-.16504-.3291-.24707-.82422-.24707-1.4834,0-.67773,.08203-1.17188,.24707-1.48242,.16504-.30957,.42188-.46484,.77051-.46484h16.86328c.34961,0,.60059,.15527,.75586,.46484,.15527,.31055,.2334,.80469,.2334,1.48242Zm-3.9834-18.31641c0-.93066-.09277-1.83203-.27637-2.7041-.18457-.87207-.49023-1.64258-.91602-2.31152-.42676-.66895-.97852-1.20117-1.65723-1.59863s-1.51172-.59668-2.5-.59668c-.89258,0-1.68652,.18457-2.38477,.55273-.69727,.36816-1.28906,.88672-1.77344,1.55566s-.85742,1.44434-1.11914,2.32617-.39258,1.81641-.39258,2.80566c0,2.38379,.46484,4.18652,1.39551,5.40723,.93066,1.22168,2.26758,1.83203,4.0127,1.83203,.89062,0,1.68555-.18359,2.38379-.55273,.69824-.36719,1.28418-.88184,1.75879-1.54102,.47461-.6582,.83887-1.42871,1.09082-2.31152,.25098-.88086,.37793-1.83594,.37793-2.86328Zm37.66309,18.31641c0,.36914-.0293,.67871-.08691,.93066-.05859,.25195-.13574,.45605-.2334,.61035-.09668,.15625-.20801,.2666-.33398,.33496s-.25684,.10156-.39258,.10156h-19.6543c-.13574,0-.26172-.0332-.37793-.10156s-.22852-.17871-.33398-.33496c-.10742-.1543-.18945-.3584-.24707-.61035-.05859-.25195-.08789-.56152-.08789-.93066,0-.34863,.0293-.64844,.08789-.90039,.05762-.25195,.13086-.46094,.21777-.62598,.08691-.16406,.19336-.29004,.31934-.37793,.12598-.08691,.2666-.13086,.42188-.13086h7.85059v-28.60938l-7.26855,4.33203c-.36914,.19434-.66504,.31055-.8877,.34961s-.40234-.00488-.53711-.13086c-.13574-.12598-.22852-.33496-.27637-.625-.04883-.29102-.07324-.65918-.07324-1.10547,0-.3291,.01465-.61035,.04395-.84277s.07227-.42578,.13086-.58203c.05859-.1543,.14062-.29004,.24707-.40625s.24707-.2334,.42188-.34961l8.66406-5.55273c.07715-.05859,.1748-.10645,.29102-.14551s.26172-.07715,.43555-.11621c.1748-.03906,.37793-.0625,.61035-.07227,.2334-.00977,.52344-.01465,.87305-.01465,.46484,0,.85254,.01953,1.16309,.05762,.30957,.03906,.55176,.09277,.72656,.16016,.17383,.06836,.29102,.15527,.34863,.26172,.05859,.10645,.08691,.21777,.08691,.33398v33.05762h6.80371c.15527,0,.30078,.04395,.43652,.13086,.13477,.08789,.24707,.21387,.33398,.37793,.08691,.16504,.15527,.37402,.2041,.62598,.04785,.25195,.07227,.55176,.07227,.90039Z"/>
</svg>