<?xml version="1.0" encoding="UTF-8"?>
<svg id="Layer_1" data-name="Layer 1" xmlns="http://www.w3.org/2000/svg" viewBox="0 0 334.79605 258.48716">
  <defs>
    <style>
      .cls-1 {
        fill: #022b51;
      }
    </style>
  </defs>
  <path class="cls-1" d="M167.03651,258.47002c-34.93179-.00013-69.86368,.04704-104.79535-.01456-29.77904-.0525-53.84671-18.71295-60.46992-47.04257-1.15116-4.92389-1.65773-10.10615-1.67199-15.17128C-.0266,151.56704-.0168,106.8919,.04082,62.21706,.08194,30.33048,21.21599,5.59222,52.65928,.56936,55.80599,.0667,59.05147,.03479,62.25121,.03349c70.10161-.02851,140.20324-.05525,210.30485-.0065,31.31527,.02178,55.6724,20.25961,61.26851,50.85695,.6795,3.71523,.90482,7.55981,.90995,11.34504,.06051,44.67483,.09145,89.34988,.02119,134.02469-.05022,31.92164-21.13797,56.59507-52.62131,61.63472-3.4943,.55933-7.10264,.55465-10.65839,.55859-34.81314,.03845-69.62633,.02317-104.43952,.02304ZM304.18077,65.00299c-1.72371,1.32291-2.92977,2.23807-4.12496,3.16729-28.59375,22.23179-57.12245,44.54787-85.79728,66.67463-28.27092,21.8151-65.86605,21.63768-94.07451-.26387-28.70303-22.28552-57.37224-44.61459-86.06027-66.91943-1.03726-.80648-2.11719-1.55808-3.50359-2.57452-.06304,1.19012-.10991,1.66216-.10994,2.13422-.00232,43.4786-.02103,86.95722,.0481,130.43571,.00429,2.69549,.41703,5.46684,1.12315,8.07186,3.77248,13.91743,15.69569,22.42673,31.32177,22.43244,50.72505,.01852,101.4501,.00707,152.17515,.00701,19.12583,0,38.25203,.07196,57.3774-.02152,18.33118-.0896,31.6734-13.02798,31.70876-30.89761,.0856-43.24084,.02883-86.48198,.02568-129.72299-.00004-.58833-.04928-1.17668-.10947-2.52321ZM43.29316,36.15646c.85928,.71398,1.39085,1.18158,1.94868,1.61543,30.93092,24.05776,61.84107,48.14229,92.80552,72.15681,18.59484,14.42125,40.34237,14.31304,58.99255-.18123,23.62776-18.36265,47.24109-36.74385,70.85855-55.11976,7.83517-6.09629,15.66382-12.20099,23.67273-18.43996-5.66041-4.20373-11.77568-5.84487-18.31462-5.84825-70.55841-.03653-141.11688-.03505-211.67529-.0031-6.54309,.00296-12.6525,1.64428-18.28812,5.82006Z"/>
</svg>