<?xml version="1.0" encoding="UTF-8"?>
<svg id="Layer_1" data-name="Layer 1" xmlns="http://www.w3.org/2000/svg" viewBox="0 0 346.98131 348.17862">
  <defs>
    <style>
      .cls-1 {
        fill: #022b51;
      }
    </style>
  </defs>
  <path class="cls-1" d="M326.85591,238.58975c-6.77539-4.3125-13.41602-9.14551-19.83691-13.81836-4.67871-3.40527-9.51562-6.92578-14.39355-10.2373l-3.21582-2.19043c-8.52246-5.80859-17.33398-11.81494-26.62109-16.66016-10.55273-5.50684-22.17773-4.89014-32.73633,1.73975-4.57324,2.87109-8.76465,6.38574-12.81934,9.78467-1.62793,1.36475-3.31055,2.77588-4.9834,4.11475-1.07422,.85986-2.10254,1.91455-3.09668,2.93408-1.55469,1.59473-3.48926,3.58008-4.7002,3.58398h-.00879c-2.04102,0-4.71777-2.22168-7.0791-4.18164-.67676-.56055-1.3418-1.1123-1.99121-1.61719-15.51465-12.06006-30.43066-26.12305-44.33398-41.79932-4.92578-5.5542-9.63965-11.50098-14.19824-17.25195-2.50879-3.16602-5.10449-6.43994-7.71289-9.62207-.91602-1.11621-1.07324-1.43848,.46582-2.96875,4.46777-4.44287,9.19141-9.24609,13.46777-14.27051,5.46973-6.42285,12.59473-16.5249,11.32812-30.0332-.7627-8.13379-3.87402-15.84375-9.78906-24.26318-10.91016-15.52588-22.08496-31.25146-32.8916-46.45947l-5.60742-7.89307c-5.18848-7.30322-12.01172-12.32422-20.2793-14.92334C68.49751-2.8873,51.39693,.39883,36.37056,12.06534,8.19087,33.94424-3.70854,64.32803,1.00337,102.37295c2.31152,18.66797,8.53418,37.37012,19.58301,58.85693,14.18262,27.58545,33.35547,54.14307,58.61133,81.19092,37.23828,39.87988,74.68066,68.63184,114.46582,87.89844,22.99902,11.1377,45.0459,16.97656,67.40039,17.85059l.20312,.00879,.20117-.0332c2.5498-.42188,5.17871-.77832,7.7207-1.12207,5.65137-.76465,11.49512-1.55664,17.08887-3.1377,28.32422-8.00586,47.72656-25.50586,57.66797-52.01172,6.3916-17.04004,3.58594-40.125-17.08984-53.28418Zm-109.41406,71.92285c-63.91992-29.0166-116.54785-75.7373-160.8916-142.83105-13.58887-20.56152-22.11914-39.78906-26.07715-58.78223-3.87402-18.59033-3.3291-33.45654,1.71484-46.78467,4.0127-10.59863,10.66113-19.53809,20.3252-27.3291,5.49316-4.42822,11.89453-6.67285,19.0293-6.67285,.0498,0,.10059,.00049,.15039,.00049,5.10059,.02295,9.09668,2.01562,11.875,5.92334,2.75781,3.87695,5.51855,7.75195,8.2793,11.62695,9.87695,13.8623,20.08984,28.19678,29.97754,42.39795,6.62402,9.51221,6.28418,13.44678-1.91211,22.15723-2.66016,2.82617-5.40723,5.66846-8.06445,8.41699-1.37012,1.41748-2.74121,2.83545-4.10645,4.25781-9.93164,10.34326-11.11328,21.7666-3.41699,33.03467,6.71973,9.83447,14.4541,19.8291,22.9873,29.70508,16.0166,18.53369,33.35254,34.98193,51.52734,48.88916,5.09863,3.90234,10.65039,7.34082,16.50195,10.21973,9.45215,4.64746,19.84277,2.88672,27.80273-4.71191,1.75781-1.67773,3.48926-3.42285,5.16406-5.11035,2.37891-2.39648,4.83789-4.87598,7.36523-7.15137,2.79688-2.51855,5.8418-5.07227,9.15723-6.69629,1.625-.79395,4.38379-.90039,6.15039-.2334,4.0459,1.52832,7.79102,3.98438,10.60156,5.95312,6.76758,4.74219,13.61426,9.62012,20.23535,14.33789,9.86133,7.02539,20.05762,14.29004,30.21582,21.26367,5.89258,4.04395,7.94434,9.25586,6.45605,16.40234-2.53418,12.16895-9.87109,21.98633-23.08984,30.89453-9.79785,6.60547-23.4707,9.55176-44.33398,9.55176h-.0791c-8.84961-.06836-22.01465-3.49414-33.54492-8.72949Z"/>
</svg>