<?xml version="1.0" encoding="UTF-8"?>
<svg id="Layer_1" data-name="Layer 1" xmlns="http://www.w3.org/2000/svg" viewBox="0 0 307.18576 383.19349">
  <defs>
    <style>
      .cls-1 {
        fill: #022b51;
      }
    </style>
  </defs>
  <path class="cls-1" d="M152.86501,383.19349c-1.11744-1.1081-2.15313-2.31577-3.36416-3.30987-40.38437-33.15054-76.78393-70.10744-107.04938-112.82665-16.50586-23.29777-31.0312-47.88279-37.60514-75.91699-13.21351-56.34829,.59844-105.91087,41.36854-146.93253C77.51475,12.71443,116.37416-1.51502,160.71134,.12725c68.11203,2.52291,127.56942,52.4788,142.58872,119.2038,8.64645,38.4129,2.56705,74.66234-15.29149,109.39542-17.66793,34.36235-41.33597,64.29937-67.51173,92.3976-20.00048,21.46939-41.27031,41.60892-64.21734,59.93821-.73661,.58838-1.28255,1.41543-1.91742,2.13121h-1.49708Zm.66952-39.03203c.85401-.6719,1.45692-1.09677,2.00425-1.58404,21.26469-18.93067,41.40164-38.98495,59.88095-60.65566,19.39081-22.73961,36.82747-46.79103,49.46864-74.07217,13.80099-29.78411,16.48461-60.39875,6.42686-91.69242C248.90043,46.41595,173.47857,11.75567,105.48176,39.66868,61.46089,57.73946,31.00333,102.97426,29.97701,150.52002c-.49635,22.99405,5.59054,44.05109,15.70923,64.26027,13.84171,27.64481,32.50523,51.90858,52.92057,74.9134,17.06978,19.23488,35.3659,37.23956,54.92772,54.46777Zm.14126-119.60004c-39.29662,.01987-71.18061-31.79135-71.18644-71.02399-.00585-39.25233,31.86363-71.19787,71.05691-71.22652,39.20599-.02865,71.1839,31.90541,71.19034,71.09263,.00644,39.30234-31.78582,71.13802-71.06082,71.15788Zm-.20504-29.95148c22.72732,.06284,41.24148-18.31055,41.30928-40.99514,.06775-22.66913-18.383-41.26073-41.02598-41.33917-22.62787-.07839-41.24939,18.42968-41.30709,41.05543-.0579,22.70242,18.34145,41.21617,41.02379,41.27888Z"/>
</svg>