<?xml version="1.0" encoding="UTF-8"?>
<svg id="Layer_1" data-name="Layer 1" xmlns="http://www.w3.org/2000/svg" viewBox="0 0 340.90274 325.07038">
  <defs>
    <style>
      .cls-1 {
        fill: #ffc107;
      }
    </style>
  </defs>
  <path class="cls-1" d="M169.57623,.0002c6.33705-.0268,10.01458,2.62192,12.48592,7.66389,14.5594,29.7038,29.26211,59.33733,43.84332,89.03048,1.02802,2.09345,2.15501,3.13067,4.63688,3.48259,32.51526,4.61059,65.00664,9.38904,97.5075,14.10158,9.04593,1.31162,13.96367,6.2765,12.63965,13.81773-.51643,2.94144-2.41369,6.08455-4.58175,8.22356-23.58042,23.26451-47.32588,46.36192-71.07983,69.4499-1.67123,1.62434-2.29747,3.02235-1.86398,5.50699,5.75203,32.96742,11.31904,65.96708,16.98541,98.94957,.88985,5.17971-.45533,9.47791-4.71934,12.54719-4.27843,3.07965-8.80011,2.88934-13.41698,.45706-29.37686-15.47626-58.79732-30.86995-88.13506-46.41992-2.54049-1.34654-4.36168-1.26214-6.85238,.05621-29.12714,15.41703-58.40691,30.54773-87.44941,46.12144-9.07673,4.86729-18.21816-.36689-18.99288-8.75507-.1802-1.95105,.15392-3.98647,.48781-5.94269,5.52558-32.37306,11.04601-64.74721,16.72793-97.09293,.44015-2.50567-.25112-3.88332-1.90845-5.4938-23.75678-23.085-47.50294-46.18158-71.1011-69.42824-2.09733-2.06607-3.93542-5.03148-4.52575-7.86441-1.39238-6.68185,2.85544-12.43397,9.7425-13.54188,13.19083-2.122,26.42755-3.96022,39.64962-5.88603,20.01651-2.91543,40.02871-5.86337,60.06471-8.63886,2.79882-.3877,4.26949-1.47005,5.52219-4.03035,14.48337-29.60162,29.15255-59.11226,43.6614-88.7015C161.30536,2.7157,164.87362,.09234,169.57623,.0002Z"/>
</svg>