<?xml version="1.0" encoding="UTF-8"?>
<svg id="Layer_1" data-name="Layer 1" xmlns="http://www.w3.org/2000/svg" viewBox="0 0 15.49951 15.50001">
  <path d="M15.27979,14.21973c.29297,.29297,.29297,.76758,0,1.06055-.14648,.14648-.33789,.21973-.53027,.21973s-.38379-.07324-.53027-.21973l-6.4696-6.4696L1.28027,15.28027c-.14648,.14648-.33838,.21973-.53027,.21973s-.38379-.07324-.53027-.21973c-.29297-.29297-.29297-.76758,0-1.06055L6.68909,7.75012,.21973,1.28076C-.07324,.98779-.07324,.51318,.21973,.22021,.5127-.07276,.9873-.07275,1.28027,.22021L7.74963,6.68958,14.21924,.21973c.29297-.29297,.76758-.29297,1.06055,0,.29297,.29297,.29297,.76758,0,1.06055l-6.4696,6.46985,6.4696,6.4696Z"/>
</svg>